<svg xmlns="http://www.w3.org/2000/svg" width="26" height="26" fill="none"><g clip-path="url(#a)"><path fill="url(#b)" d="M25.922 7.64c-.063-1.384-.283-2.329-.605-3.155a6.372 6.372 0 0 0-1.499-2.303 6.374 6.374 0 0 0-2.303-1.5c-.827-.32-1.771-.54-3.155-.603C16.973.015 16.53 0 13 0 9.47 0 9.027.015 7.64.078 6.256.141 5.312.361 4.485.683a6.371 6.371 0 0 0-2.303 1.499 6.372 6.372 0 0 0-1.5 2.302C.361 5.311.142 6.256.08 7.64.015 9.027 0 9.47 0 13c0 3.53.015 3.974.079 5.36.063 1.383.282 2.328.604 3.155a6.37 6.37 0 0 0 1.5 2.303 6.369 6.369 0 0 0 2.302 1.5c.827.32 1.772.54 3.155.604C9.027 25.985 9.47 26 13 26c3.53 0 3.974-.015 5.36-.078 1.384-.064 2.329-.283 3.156-.605a6.646 6.646 0 0 0 3.801-3.802c.322-.827.542-1.772.605-3.155.063-1.387.078-1.83.078-5.36 0-3.53-.015-3.973-.078-5.36Zm-2.34 10.613c-.058 1.268-.27 1.956-.448 2.414a4.305 4.305 0 0 1-2.467 2.467c-.458.178-1.146.39-2.414.448-1.37.063-1.782.076-5.253.076-3.472 0-3.883-.013-5.253-.076-1.268-.058-1.956-.27-2.414-.448a4.03 4.03 0 0 1-1.495-.972 4.027 4.027 0 0 1-.972-1.495c-.178-.458-.39-1.146-.448-2.414-.062-1.37-.076-1.782-.076-5.253s.014-3.882.076-5.253c.058-1.268.27-1.956.448-2.414a4.03 4.03 0 0 1 .972-1.495c.42-.432.93-.764 1.495-.972.458-.178 1.146-.39 2.414-.448 1.37-.062 1.782-.076 5.253-.076s3.882.014 5.253.076c1.268.058 1.956.27 2.414.448.564.208 1.075.54 1.495.972.431.42.764.93.972 1.495.178.458.39 1.146.448 2.414.062 1.37.075 1.782.075 5.253s-.013 3.882-.075 5.253Z"/><path fill="url(#c)" d="M13 6.324a6.676 6.676 0 1 0 0 13.352 6.676 6.676 0 0 0 0-13.352Zm0 11.01a4.333 4.333 0 1 1 0-8.667 4.333 4.333 0 0 1 0 8.666Z"/><path fill="url(#d)" d="M21.5 6.06a1.56 1.56 0 1 1-3.12 0 1.56 1.56 0 0 1 3.12 0Z"/></g><defs><linearGradient id="b" x1="2.182" x2="23.818" y1="23.818" y2="2.182" gradientUnits="userSpaceOnUse"><stop stop-color="#FFD600"/><stop offset=".5" stop-color="#FF0100"/><stop offset="1" stop-color="#D800B9"/></linearGradient><linearGradient id="c" x1="8.28" x2="17.72" y1="17.72" y2="8.28" gradientUnits="userSpaceOnUse"><stop stop-color="#FF6400"/><stop offset=".5" stop-color="#FF0100"/><stop offset="1" stop-color="#FD0056"/></linearGradient><linearGradient id="d" x1="18.836" x2="21.043" y1="7.164" y2="4.957" gradientUnits="userSpaceOnUse"><stop stop-color="#F30072"/><stop offset="1" stop-color="#E50097"/></linearGradient><clipPath id="a"><path fill="#fff" d="M0 0h26v26H0z"/></clipPath></defs></svg>
