<svg xmlns="http://www.w3.org/2000/svg" width="27" height="26" fill="none"><g clip-path="url(#a)"><path fill="#0077B5" d="M23.266 0H4.431A3.532 3.532 0 0 0 .899 3.532v18.835A3.532 3.532 0 0 0 4.43 25.9h18.835a3.532 3.532 0 0 0 3.532-3.532V3.532A3.532 3.532 0 0 0 23.266 0Z"/><path fill="#fff" d="M10.229 7.063a2.207 2.207 0 1 1-4.415 0 2.207 2.207 0 0 1 4.415 0ZM9.728 10.742v9.752a.545.545 0 0 1-.546.549H6.856a.545.545 0 0 1-.547-.548v-9.753a.547.547 0 0 1 .547-.547h2.326a.548.548 0 0 1 .546.547ZM21.889 15.819v4.72a.502.502 0 0 1-.503.504h-2.502a.502.502 0 0 1-.503-.503v-4.575c0-.683.2-2.99-1.785-2.99-1.538 0-1.851 1.578-1.913 2.288v5.277a.503.503 0 0 1-.496.503h-2.416a.501.501 0 0 1-.502-.503V10.7a.504.504 0 0 1 .502-.504h2.416a.503.503 0 0 1 .503.504v.85c.571-.856 1.417-1.517 3.223-1.517 4 0 3.976 3.735 3.976 5.786Z"/></g><defs><clipPath id="a"><path fill="#fff" d="M.899 0h25.899v25.899H.898z"/></clipPath></defs></svg>
