<svg width="26" height="26" fill="none" xmlns="http://www.w3.org/2000/svg"><g clip-path="url(#a)" fill="#000"><path d="m13.87 12.556 5.85 8.369h-2.4l-4.775-6.83-.701-1.002-5.577-7.978h2.4l4.502 6.439.7 1.002Z"/><path d="M23.19 0H2.81A2.81 2.81 0 0 0 0 2.81v20.38A2.81 2.81 0 0 0 2.81 26h20.38A2.81 2.81 0 0 0 26 23.19V2.81A2.81 2.81 0 0 0 23.19 0Zm-6.606 22.049-4.832-7.032-6.049 7.032H4.14l6.918-8.042L4.14 3.938h5.276l4.575 6.659 5.729-6.659h1.563l-6.597 7.669 7.174 10.442h-5.276Z"/></g><defs><clipPath id="a"><path fill="#fff" d="M0 0h26v26H0z"/></clipPath></defs></svg>
